<svg xmlns="http://www.w3.org/2000/svg"  viewBox="0 0 24 24"><path d="M 11.25 2 C 10.485 2 9.7802187 2.436 9.4492188 3.125 C 6.1472187 9.98 4.2609375 16.211734 3.4609375 19.177734 C 3.1849375 20.200734 3.7567188 21.252891 4.7617188 21.587891 L 5.2148438 21.738281 C 5.7178437 21.905281 6.2662344 21.867859 6.7402344 21.630859 L 7.0898438 21.455078 C 7.6538437 21.173078 8.0491562 20.648344 8.1601562 20.027344 C 8.5461563 17.868344 9.671 12.434 12 7 C 12.680989 8.5888761 13.247755 10.166822 13.734375 11.673828 L 10.869141 13.080078 C 10.309141 14.910078 9.9108594 16.550781 9.6308594 17.800781 L 15.226562 17.119141 C 15.499889 18.312635 15.720747 19.361202 15.839844 20.027344 C 15.950844 20.648344 16.346156 21.173078 16.910156 21.455078 L 17.259766 21.628906 C 17.734766 21.866906 18.282156 21.906281 18.785156 21.738281 L 19.238281 21.587891 C 20.243281 21.252891 20.816016 20.200734 20.541016 19.177734 C 19.741016 16.211734 17.854734 9.98 14.552734 3.125 C 14.220734 2.436 13.516953 2 12.751953 2 L 11.25 2 z"/></svg>