<svg xmlns="http://www.w3.org/2000/svg"  viewBox="0 0 50 50">
  <path d="M 41.140625 6.046875 C 40.898438 6.027344 40.65625 6.0625 40.484375 6.148438 C 40.136719 6.324219 39.96875 6.542969 39.800781 6.78125 C 39.464844 7.257813 39.171875 7.894531 38.792969 8.867188 C 37.210938 12.921875 32.523438 15.898438 27.75 16.882813 C 26.792969 16.324219 25.683594 16 24.5 16 C 22.929688 16 21.488281 16.5625 20.363281 17.496094 C 16.148438 17.152344 12.832031 12.445313 12.832031 12.445313 L 11 9.695313 L 11 19.355469 C 10.59375 19.929688 10.296875 20.585938 10.136719 21.292969 C 9.582031 20.910156 9.007813 20.585938 8.414063 20.371094 C 7.664063 20.097656 6.878906 19.964844 6.117188 20.011719 C 5.351563 20.058594 4.617188 20.28125 3.960938 20.714844 C 2.65625 21.585938 2.023438 23.097656 2 24.671875 C 1.976563 26.246094 2.523438 27.941406 3.59375 29.464844 C 4.667969 30.988281 6.085938 32.085938 7.585938 32.628906 C 8.261719 32.875 8.964844 32.996094 9.652344 32.988281 C 11.015625 34.050781 13.144531 35.457031 15.277344 36.390625 C 19.78125 38.359375 24.1875 39.300781 28.191406 38.917969 C 30.695313 38.675781 33.039063 37.898438 35.101563 36.546875 C 35.425781 36.71875 35.75 36.886719 36.074219 37.03125 C 38.71875 38.242188 41.179688 39.046875 43.027344 39.402344 C 42.996094 39.953125 43.054688 40.542969 43.238281 41.144531 C 43.71875 42.703125 45.179688 43.492188 46.394531 44.074219 C 47.613281 44.65625 48.734375 44.964844 48.734375 44.964844 L 50 45.3125 L 50 44 C 50 44 50.003906 42.699219 49.878906 41.25 C 49.816406 40.523438 49.726563 39.757813 49.574219 39.066406 C 49.421875 38.375 49.289063 37.757813 48.769531 37.199219 C 48.152344 36.527344 47.375 36.152344 46.597656 36.058594 C 45.820313 35.960938 45.046875 36.144531 44.4375 36.589844 C 44.394531 36.617188 44.363281 36.65625 44.328125 36.6875 C 42.980469 35.628906 40.96875 34.429688 38.621094 33.308594 C 41.285156 29.914063 42.332031 24.746094 42.761719 19.992188 C 43.195313 15.15625 42.949219 10.792969 42.730469 9.101563 C 42.660156 8.589844 42.59375 8.082031 42.492188 7.625 C 42.390625 7.167969 42.417969 6.738281 41.78125 6.257813 C 41.621094 6.136719 41.382813 6.066406 41.140625 6.046875 Z M 40.75 9.398438 C 40.933594 10.839844 41.1875 15.175781 40.769531 19.8125 C 40.347656 24.46875 39.199219 29.453125 36.933594 32.226563 C 36.867188 32.304688 36.796875 32.371094 36.734375 32.449219 C 35.777344 32.046875 34.851563 31.695313 33.984375 31.402344 C 34.160156 29.441406 31 28 31 28 C 31 28 31.863281 29.191406 31.863281 30.34375 C 31.863281 32.65625 20 32 20 32 C 20 32 26.660156 34.445313 30.789063 33.90625 C 31.476563 34.382813 32.257813 34.902344 33.097656 35.417969 C 31.554688 36.25 29.851563 36.746094 28 36.921875 C 24.445313 37.265625 20.355469 36.429688 16.078125 34.558594 C 14.703125 33.957031 13.242188 33.070313 12.0625 32.265625 C 13.351563 31.390625 13.976563 29.890625 14 28.328125 C 14.003906 28.144531 13.996094 27.960938 13.984375 27.777344 C 14.46875 27.914063 14.972656 28 15.5 28 C 16.988281 28 18.34375 27.398438 19.339844 26.429688 C 20.527344 27.988281 22.398438 29 24.5 29 C 28.078125 29 31 26.078125 31 22.5 C 31 20.996094 30.476563 19.613281 29.613281 18.507813 C 34.398438 17.167969 38.902344 14.097656 40.65625 9.59375 C 40.695313 9.488281 40.707031 9.496094 40.75 9.398438 Z M 13 15.640625 C 13.429688 16.117188 13.929688 16.617188 14.496094 17.09375 C 13.964844 17.195313 13.464844 17.371094 13 17.609375 Z M 24.5 18 C 26.996094 18 29 20.003906 29 22.5 C 29 22.78125 28.96875 23.054688 28.917969 23.324219 C 28.609375 21.992188 27.421875 21 26 21 C 25.914063 21 25.835938 21.019531 25.75 21.027344 C 26.460938 21.144531 27 21.757813 27 22.5 C 27 23.328125 26.328125 24 25.5 24 C 24.671875 24 24 23.328125 24 22.5 C 24 22.09375 24.164063 21.726563 24.425781 21.457031 C 23.574219 21.984375 23 22.921875 23 24 C 23 25.421875 23.992188 26.609375 25.324219 26.917969 C 25.054688 26.96875 24.78125 27 24.5 27 C 22.003906 27 20 24.996094 20 22.5 C 20 20.003906 22.003906 18 24.5 18 Z M 15.5 19 C 16.675781 19 17.703125 19.574219 18.339844 20.453125 C 18.21875 20.8125 18.128906 21.1875 18.074219 21.574219 C 17.644531 21.21875 17.101563 21 16.5 21 C 16.429688 21 16.363281 21.015625 16.292969 21.019531 C 16.882813 21.121094 17.332031 21.632813 17.332031 22.25 C 17.332031 22.941406 16.773438 23.5 16.082031 23.5 C 15.394531 23.5 14.832031 22.941406 14.832031 22.25 C 14.832031 21.910156 14.96875 21.605469 15.1875 21.378906 C 14.476563 21.820313 14 22.601563 14 23.5 C 14 24.722656 14.878906 25.738281 16.042969 25.953125 C 15.863281 25.980469 15.683594 26 15.5 26 C 14.734375 26 14.035156 25.757813 13.457031 25.34375 L 13.441406 25.332031 L 13.433594 25.324219 L 13.429688 25.324219 C 13.414063 25.3125 13.398438 25.296875 13.375 25.28125 C 13.359375 25.269531 13.355469 25.269531 13.339844 25.257813 C 13.089844 24.671875 12.796875 24.089844 12.40625 23.535156 C 12.300781 23.386719 12.179688 23.265625 12.070313 23.125 C 12.035156 22.921875 12 22.714844 12 22.5 C 12 20.554688 13.554688 19 15.5 19 Z M 6.257813 22 C 6.707031 21.976563 7.203125 22.054688 7.734375 22.25 C 8.792969 22.632813 9.917969 23.476563 10.769531 24.6875 C 11.621094 25.894531 12.015625 27.214844 12 28.296875 C 11.984375 29.382813 11.601563 30.171875 10.925781 30.621094 C 10.253906 31.070313 9.324219 31.136719 8.265625 30.75 C 7.207031 30.367188 6.082031 29.523438 5.230469 28.3125 C 4.378906 27.105469 3.984375 25.785156 4 24.703125 C 4 24.683594 4.003906 24.667969 4.007813 24.652344 C 4.070313 25.96875 4.945313 27 6 27 C 7.105469 27 8 25.878906 8 24.5 C 8 23.214844 7.222656 22.140625 6.203125 22.011719 C 6.222656 22.011719 6.238281 22.003906 6.257813 22 Z M 46.367188 37.972656 C 46.644531 38.007813 46.953125 38.179688 47.304688 38.558594 C 47.273438 38.527344 47.5 38.9375 47.621094 39.488281 C 47.742188 40.042969 47.828125 40.746094 47.886719 41.417969 C 47.9375 42 47.917969 42.082031 47.9375 42.53125 C 47.636719 42.414063 47.609375 42.4375 47.261719 42.269531 C 46.226563 41.777344 45.285156 40.992188 45.152344 40.558594 C 44.761719 39.304688 45.160156 38.539063 45.613281 38.207031 C 45.839844 38.042969 46.089844 37.941406 46.367188 37.972656 Z"/>
</svg>